:FULLY-SPECIFIED
:FORCE-ALL-JOINTS-BE-3DOF
:DEGREES
33
root 8.11033 15.7404 -31.9774 7.58351 -6.6595 -5.86515
lfemur -43.1146 8.44553 -13.6982
ltibia 37.5533 0 0
lfoot -2.52622 7.34888 0
ltoes -5.58486 0 0
rfemur 16.5248 5.76803 28.1069
rtibia 5.29459 0 0
rfoot -1.96244 0.746093 0
rtoes -22.3614 0 0
lowerback -7.71629 1.00604 2.21266
upperback -1.28228 1.00526 3.71661
thorax 2.97227 0.506046 2.72359
lowerneck -20.6298 -4.79421 -12.6764
upperneck 15.3661 -5.90717 15.1928
head 9.09448 -1.97655 6.58712
lclavicle -2.31178e-14 -3.46758e-14 0
lhumerus -42.3916 -6.11898 90.5984
lradius 24.0944 0 0
lwrist 1.43105 0 0
lhand 2.31675 -18.6461 0
lfingers 7.12502 0 0
lthumb 27.7852 9.0828 0
rclavicle -2.31178e-14 -3.46758e-14 0
rhumerus -44.2648 19.3117 -91.7244
rradius 56.1242 0 0
rwrist -27.1976 0 0
rhand -31.3652 -32.6133 0
rfingers 7.12502 0 0
rthumb -4.63579 -62.5404 0
34
root 8.13047 15.7325 -31.8289 7.59819 -6.9087 -5.93382
lfemur -43.1904 8.50875 -13.6153
ltibia 37.3546 0 0
lfoot -2.14833 7.3177 0
ltoes -5.38912 0 0
rfemur 17.3505 5.80058 28.0443
rtibia 4.7063 0 0
rfoot -2.02377 0.769409 0
rtoes -23.0602 0 0
lowerback -7.82308 1.03156 2.25245
upperback -1.27489 1.03088 3.75285
thorax 3.03875 0.518859 2.74286
lowerneck -20.6914 -4.78233 -12.6558
upperneck 15.4188 -5.88455 15.1387
head 9.1165 -1.967 6.5689
lclavicle -2.40383e-14 -3.62564e-14 0
lhumerus -42.5936 -6.21712 90.7341
lradius 23.9909 0 0
lwrist 1.24747 0 0
lhand 2.80478 -18.5094 0
lfingers 7.12502 0 0
lthumb 28.2534 9.16144 0
rclavicle -2.40383e-14 -3.62564e-14 0
rhumerus -44.4365 19.3697 -91.9626
rradius 56.1219 0 0
rwrist -27.1547 0 0
rhand -31.3079 -32.8277 0
rfingers 7.12502 0 0
rthumb -4.58039 -62.7562 0
35
root 8.15061 15.7246 -31.6803 7.61288 -7.1579 -6.00249
lfemur -43.2662 8.57197 -13.5323
ltibia 37.156 0 0
lfoot -1.77045 7.28652 0
ltoes -5.19337 0 0
rfemur 18.1762 5.83312 27.9817
rtibia 4.11801 0 0
rfoot -2.0851 0.792724 0
rtoes -23.759 0 0
lowerback -7.92986 1.05708 2.29224
upperback -1.26749 1.05651 3.78909
thorax 3.10522 0.531672 2.76212
lowerneck -20.753 -4.77046 -12.6351
upperneck 15.4715 -5.86192 15.0846
head 9.13851 -1.95746 6.55068
lclavicle -2.49587e-14 -3.78369e-14 0
lhumerus -42.7956 -6.31526 90.8699
lradius 23.8874 0 0
lwrist 1.06389 0 0
lhand 3.29281 -18.3726 0
lfingers 7.12502 0 0
lthumb 28.7215 9.24008 0
rclavicle -2.49587e-14 -3.78369e-14 0
rhumerus -44.6083 19.4278 -92.2007
rradius 56.1195 0 0
rwrist -27.1118 0 0
rhand -31.2505 -33.0421 0
rfingers 7.12502 0 0
rthumb -4.52498 -62.972 0
36
root 8.17074 15.7167 -31.5317 7.62756 -7.4071 -6.07116
lfemur -43.3419 8.63519 -13.4494
ltibia 36.9573 0 0
lfoot -1.39256 7.25534 0
ltoes -4.99763 0 0
rfemur 19.0019 5.86567 27.9191
rtibia 3.52973 0 0
rfoot -2.14642 0.81604 0
rtoes -24.4577 0 0
lowerback -8.03665 1.0826 2.33202
upperback -1.2601 1.08214 3.82533
thorax 3.17169 0.544485 2.78139
lowerneck -20.8147 -4.75859 -12.6145
upperneck 15.5242 -5.8393 15.0305
head 9.16053 -1.94792 6.53245
lclavicle -2.58792e-14 -3.94175e-14 0
lhumerus -42.9976 -6.4134 91.0056
lradius 23.784 0 0
lwrist 0.880311 0 0
lhand 3.78084 -18.2359 0
lfingers 7.12502 0 0
lthumb 29.1897 9.31873 0
rclavicle -2.58792e-14 -3.94175e-14 0
rhumerus -44.78 19.4858 -92.4389
rradius 56.1172 0 0
rwrist -27.069 0 0
rhand -31.1931 -33.2566 0
rfingers 7.12502 0 0
rthumb -4.46958 -63.1878 0
37
root 8.19088 15.7088 -31.3831 7.64225 -7.65629 -6.13983
lfemur -43.4177 8.6984 -13.3665
ltibia 36.7586 0 0
lfoot -1.01467 7.22415 0
ltoes -4.80188 0 0
rfemur 19.8276 5.89821 27.8565
rtibia 2.94144 0 0
rfoot -2.20775 0.839355 0
rtoes -25.1565 0 0
lowerback -8.14344 1.10812 2.37181
upperback -1.25271 1.10776 3.86156
thorax 3.23817 0.557297 2.80066
lowerneck -20.8763 -4.74671 -12.5938
upperneck 15.5769 -5.81668 14.9764
head 9.18255 -1.93837 6.51423
lclavicle -2.67996e-14 -4.09981e-14 0
lhumerus -43.1997 -6.51154 91.1414
lradius 23.6805 0 0
lwrist 0.696732 0 0
lhand 4.26888 -18.0992 0
lfingers 7.12502 0 0
lthumb 29.6579 9.39737 0
rclavicle -2.67996e-14 -4.09981e-14 0
rhumerus -44.9518 19.5438 -92.6771
rradius 56.1149 0 0
rwrist -27.0261 0 0
rhand -31.1357 -33.471 0
rfingers 7.12502 0 0
rthumb -4.41418 -63.4036 0
38
root 8.21102 15.7009 -31.2345 7.65694 -7.90549 -6.2085
lfemur -43.4935 8.76162 -13.2836
ltibia 36.56 0 0
lfoot -0.636786 7.19297 0
ltoes -4.60614 0 0
rfemur 20.6534 5.93076 27.7939
rtibia 2.35315 0 0
rfoot -2.26907 0.86267 0
rtoes -25.8553 0 0
lowerback -8.25022 1.13364 2.4116
upperback -1.24531 1.13339 3.8978
thorax 3.30464 0.57011 2.81992
lowerneck -20.9379 -4.73484 -12.5731
upperneck 15.6296 -5.79406 14.9224
head 9.20456 -1.92883 6.496
lclavicle -2.772e-14 -4.25787e-14 0
lhumerus -43.4017 -6.60968 91.2771
lradius 23.577 0 0
lwrist 0.513153 0 0
lhand 4.75691 -17.9625 0
lfingers 7.12502 0 0
lthumb 30.126 9.47601 0
rclavicle -2.772e-14 -4.25787e-14 0
rhumerus -45.1235 19.6018 -92.9152
rradius 56.1125 0 0
rwrist -26.9832 0 0
rhand -31.0783 -33.6855 0
rfingers 7.12502 0 0
rthumb -4.35877 -63.6195 0
